<?xml version="1.0" encoding="utf-8"?>
<!-- Generator: Adobe Illustrator 21.1.0, SVG Export Plug-In . SVG Version: 6.00 Build 0)  -->
<svg version="1.1" xmlns="http://www.w3.org/2000/svg" xmlns:xlink="http://www.w3.org/1999/xlink" x="0px" y="0px"
	 viewBox="0 0 678 594" style="enable-background:new 0 0 678 594;" xml:space="preserve">
<style type="text/css">
	.st0{fill:#FFAA33;}
	.st1{fill:#FFFFFF;stroke:#070707;stroke-width:3;stroke-miterlimit:10;}
	.st2{fill:#CACBD1;}
	.st3{fill:none;stroke:#070707;stroke-width:3;stroke-miterlimit:10;}
	.st4{fill:#FCFCFC;stroke:#070707;stroke-width:3;stroke-miterlimit:10;}
	.st5{fill:#FFFFFF;stroke:#000000;stroke-width:3;stroke-miterlimit:10;}
	.st6{fill:none;stroke:#000000;stroke-width:3;stroke-miterlimit:10;}
	.st7{fill:#070707;stroke:#000000;stroke-miterlimit:10;}
	.st8{fill:#FE3869;}
	.st9{fill:none;stroke:#000000;stroke-miterlimit:10;}
	.st10{fill:#020202;stroke:#000000;stroke-miterlimit:10;}
	.st11{stroke:#000000;stroke-miterlimit:10;}
	.st12{fill:#F478A1;}
	.st13{display:none;}
	.st14{display:inline;fill:#C77143;}
	.st15{display:inline;fill:#FF8600;}
	.st16{display:inline;fill:#FFAA33;}
	.st17{fill:#FFFFFF;}
	.st18{font-family:'HelveticaNeueCyr-Medium';}
	.st19{font-size:23px;}
</style>
<g id="клякса">
	<path class="st0" d="M55.3,258.7c0,0,2-57.3,97.3-71.3C189,182,205.8,148.4,232,129c42.6-31.6,86.8-47.8,107-9
		c32.7,62.7,76.3-7.3,76.3-7.3s39.3-35,59.7,21s91,90.3,91,90.3s102.5,71-4,144.5c0,0-8,14-84.5,0S401,410,401,410s7,39,22,48
		s11,44.5,11,44.5s-11,42.5-53.5,14c0,0-38.8-46-47.6-48s-77.5-35.8-157.5,22.8c0,0-36,24.7-76.7-6c0,0-26-32,34-76
		S112,326.7,112,326.7S55.7,300.3,55.3,258.7z"/>
</g>
<g id="Джимми">
	<path id="Левая_рука_2_" class="st1" d="M311.1,285.8c0,0,118.6-90.4,123.9-74.8s-84.5,116.8-84.5,116.8L311.1,285.8z"/>
	<path class="st2" d="M413.7,215.4c0,0-2.1,18.6,10.5,19.4c0.8,0.1,3.1-4.4,4-4.5l7.1-17l-1.8-4.2l-5.6,0.5L413.7,215.4z"/>
	<path id="Левая_рука" class="st3" d="M311.1,285.8c0,0,118.6-90.4,123.9-74.8s-84.5,116.8-84.5,116.8L311.1,285.8z"/>
	<path id="Левая_рука_1_" class="st4" d="M165.8,328.7c0,0-120,88.4-125.1,72.8s86.4-115.4,86.4-115.4L165.8,328.7z"/>
	<path class="st2" d="M62.1,398.8c0,0,6.2-4,5.8-6.2c-0.9-4.6-9.4-10.5-19.7-9.9l-7.8,18.2l1.8,4.2l5.6-0.5L62.1,398.8z"/>
	<path id="Левая_рука_3_" class="st3" d="M165.8,328.7c0,0-120,88.4-125.1,72.8s86.4-115.4,86.4-115.4L165.8,328.7z"/>
	<path id="Туловко" class="st5" d="M358.2,337.5c0,124-53.1,224.5-118.5,224.5S121.1,461.5,121.1,337.5s50.7-38.3,116.1-38.3
		S358.2,213.5,358.2,337.5z"/>
	<g id="Тень_туловища">
		<path class="st2" d="M148.1,271.3c0,0-5.8,3.2-8.7,11.1c-3.2,8.8-4.1,23.4-4.5,45.3c-0.8,39.4-6.6,156,79.4,225.3l9.5,6.6
			l-11.1-2.3c0,0-30.2-16.8-35.6-27.7c-5.4-10.8-16.3-17.7-30.5-50.2c-14.2-32.6-22.6-83.3-22.6-83.3l-4-48.6l0.1-23.3l4.6-35.5
			c0,0,5.5-15.6,9.7-15.6c1.6,0,3.2-2.1,5.1-2.6C142.6,269.8,147.4,271.2,148.1,271.3z"/>
	</g>
	<path id="Туловко_1_" class="st6" d="M358.2,337.6c0,124-53.1,224.5-118.5,224.5S121.1,461.6,121.1,337.6
		s50.7-38.3,116.1-38.3S358.2,213.6,358.2,337.6z"/>
	<g id="Головушка">
		<path id="Личико" class="st5" d="M331.6,197.3c0,47.6-41.1,57.6-91.9,57.6s-91.9-8-91.9-55.6s41.1-86.2,91.9-86.2
			S331.6,149.7,331.6,197.3z"/>
		<g id="Ротик">
			<path class="st7" d="M263.9,209.6c0,0,0,24.2-24.2,24.2s-24.2-24.2-24.2-24.2H263.9z"/>
			<path class="st8" d="M221.9,226.8c3.6-4,9.1-7,17.8-7c8.6,0,14.2,3.1,17.8,7c0.2,0.3-8.8,7.5-17.8,7.5
				C230.7,234.3,221.7,227,221.9,226.8z"/>
			<path class="st9" d="M263.9,209.6c0,0,0,24.2-24.2,24.2s-24.2-24.2-24.2-24.2H263.9z"/>
		</g>
		<g id="Глазки">
			<circle class="st10" cx="272.8" cy="185.2" r="8.9"/>
			<circle class="st11" cx="206.5" cy="185.2" r="8.9"/>
		</g>
		<g id="Щечки">
			<ellipse class="st12" cx="290.2" cy="218.7" rx="8.5" ry="6.5"/>
			<ellipse class="st12" cx="186.9" cy="216.9" rx="8.5" ry="6.5"/>
		</g>
	</g>
	<path class="st2" d="M226,114.1c0,0-22.3,9.2-40.9,25.1c-11.2,9.6-19.9,22.1-24.8,35c-5.2,13.6-6.6,33.8,0.5,47.5
		c8,15.5,25.5,24,38,30.5l-9.8-2.1l-17.1-6.5l-8.7-5.9l-10.8-14.2c0,0-11.5-9.8,1.4-54.9c0,0,20.1-42.6,55.6-50.6L226,114.1z"/>
	<path id="Личико_1_" class="st6" d="M331.6,197.3c0,47.6-41.1,57.6-91.9,57.6s-91.9-8-91.9-55.6s41.1-86.2,91.9-86.2
		S331.6,149.7,331.6,197.3z"/>
	<g id="Слой_8">
		<g transform="translate(16.1 7.912)" class="st13">
			<path id="path1_fill_1_" class="st14" d="M320.1,363.4c-0.3-1.8-5.6-14.1-7.3-19.4c-0.6-1.8-1.8-4.4,0.9-6.2
				c2-1.2,10.2-5.6,11.4-6.5c1.5-0.9,3.8-2.1,3.2-3.2c-0.9-1.8-5-1.2-7.6-0.6c-3.5,0.6-9.9,2.6-14.3,4.4c-4.1,1.8-7,4.4-4.7,9.7
				c2,5,4.4,8.8,6.4,12.4c2.9,5,5.8,8.8,7.3,10.3c2,2.4,4.1,3.2,5.8,2.7C322.1,366.4,320.7,365.2,320.1,363.4z"/>
		</g>
		<g transform="translate(16.39 7.912)">
			<path id="path2_fill_1_" class="st0" d="M320.7,363.4c-0.3-1.8-5.6-14.1-7.3-19.4c-0.6-1.8-1.8-4.4,0.9-6.2
				c2-1.2,10.2-5.6,11.4-6.5c1.5-0.9,3.2-2.1,2.6-3.2c-0.6-1.8-4.1-1.2-7-0.6c-3.5,0.6-9.9,2.6-14.3,4.4c-4.1,1.8-7,4.4-4.7,9.7
				c2,5,4.4,8.8,6.4,12.1c2.9,5,5.6,8.8,7,10.3c1.5,2.1,3.8,3.2,5.3,2.7C322.1,366.4,321.2,365.2,320.7,363.4z"/>
		</g>
		<g transform="translate(16.52 7.912)" class="st13">
			<path id="path3_fill_1_" class="st15" d="M328.3,328.1c-0.6-1.8-4.1-1.2-7-0.6c-3.5,0.6-9.9,2.6-14.3,4.4
				c-2.3,0.9-4.4,2.4-5.3,4.4l11.1,3.2c0.3-0.6,0.6-1.5,1.5-2.1c2-1.2,10.2-5.6,11.4-6.5C327.1,330.4,328.9,329.3,328.3,328.1
				L328.3,328.1z"/>
		</g>
		<g class="st13">
			<path id="path4_fill_1_" class="st14" d="M303.4,376.1c-0.9-3.2-9.9-25.3-13.2-34.7c-1.2-2.9-2.9-8.2,1.5-10.9
				c3.8-2.4,18.1-10,20.5-11.5c2.6-1.5,6.7-3.8,5.8-5.6c-1.5-3.2-8.8-2.1-13.5-1.2c-6.4,1.2-17.8,4.4-25.7,7.7
				c-7.3,2.9-12.6,8-8.5,17.4c3.8,8.8,7.9,15.9,11.4,21.8c5,8.8,10.5,15.9,12.9,18.6c3.5,4.1,7.6,5.6,10.2,4.7
				C306.6,381.4,304,379.3,303.4,376.1z"/>
		</g>
		<g transform="translate(.44)" class="st13">
			<path id="path5_fill_1_" class="st15" d="M304.3,376.1c-0.9-3.2-9.9-25.3-13.2-34.7c-1.2-2.9-2.9-8.2,1.5-10.9
				c3.8-2.4,18.1-10,20.5-11.5c2.6-1.5,5.8-3.5,5-5.6c-1.5-3.2-7.6-2.1-12.6-1.2c-6.4,1.2-17.8,4.4-25.7,7.7
				c-7.3,2.9-12.6,8-8.5,17.4c3.8,8.8,7.9,15.9,11.4,21.8c5,8.8,10.2,15.6,12.6,18.6c2.9,3.5,6.7,5.9,9.7,4.7
				C306.9,381.4,305.2,379.3,304.3,376.1L304.3,376.1z"/>
		</g>
		<g transform="translate(.33 8.506)" class="st13">
			<path id="path6_fill_1_" class="st16" d="M291.1,341.3c-0.9-2.1-1.8-5-1.2-7.7l-18.4-5.6h-1.5c-0.9,2.4-0.6,5.3,0.9,8.8
				c3.8,8.8,7.9,15.9,11.4,21.8c5,8.8,10.2,15.6,12.6,18.6c2.9,3.5,6.7,5.9,9.7,4.7c2.6-0.9,0.6-2.9,0-6.2
				C303.7,372.5,294.6,350.5,291.1,341.3L291.1,341.3z"/>
		</g>
		<g transform="translate(1.18)">
			<path id="path7_fill_1_" class="st0" d="M304.9,374.9c-0.9-3.2-8.8-24.4-12.3-33.9c-1.2-2.9-2.9-8.2,1.5-10.9
				c3.8-2.4,16.4-9.7,18.7-11.2c2.6-1.5,5.8-3.5,5-5.6c-1.5-3.2-7.6-2.1-12.6-1.2c-6.4,1.2-16.4,4.1-24.3,7.4
				c-7,2.9-12.3,8.2-8.2,17.4c3.8,8.8,7.9,15.9,11.4,21.8c5,8.8,10.2,15.6,12.6,18.5c2.9,3.5,5.8,4.7,8.5,3.8
				C307.8,380.2,305.7,378.4,304.9,374.9L304.9,374.9z"/>
		</g>
		<g transform="translate(1.21 8.506)" class="st13">
			<path id="path8_fill_1_" class="st15" d="M292.6,341.3c-0.6-2.1-1.5-4.7-1.2-7.1l-19.6-6.2c-0.9,2.4-0.6,5.3,0.9,8.8
				c3.8,8.8,7.9,15.9,11.4,21.8c5,8.8,10.8,17.1,12.3,18.8c1.5,2.1,5.3,5.6,7.9,4.7c2.6-0.9,2.6-2.9,1.8-6.2
				C305.2,372.5,296.1,350.5,292.6,341.3L292.6,341.3z"/>
		</g>
		<g transform="translate(16.83 8.023)">
			<path id="path9_fill_1_" class="st0" d="M321.2,362.8c-0.3-1.8-5-13.8-7-18.8c-0.6-1.8-1.8-4.4,0.9-6.2c2-1.2,9.1-5.6,10.5-6.5
				c1.5-0.9,3.2-2.1,2.6-3.2c-0.6-1.5-4.1-0.9-7-0.6c-3.5,0.6-9.1,2.4-13.5,4.1c-4.1,1.8-7,4.7-4.7,10c2,5,4.4,8.8,6.4,12.1
				c2.9,5,5.6,8.8,7,10.3c1.5,2.1,3.2,2.7,4.7,2.1C322.7,365.8,321.5,364.6,321.2,362.8z"/>
		</g>
		<g transform="translate(16.87 12.964)" class="st13">
			<path id="path10_fill_1_" class="st15" d="M314.2,344c-0.3-1.2-0.9-2.6-0.6-3.8l-11.1-3.2c-0.3,1.5-0.3,2.9,0.6,5
				c2,5,4.4,8.8,6.4,12.1c2.9,5,6.1,9.4,6.7,10.6c0.9,1.2,2.9,3.2,4.4,2.6c1.5-0.6,1.5-1.8,0.9-3.5
				C321.3,361.6,316.3,349.3,314.2,344z"/>
		</g>
	</g>
	<polygon class="st4" points="383.9,133.9 365.5,171 408.8,156.9 	"/>
	<path class="st4" d="M579.1,164.6H439.6c-36.3,0-66-29.7-66-66v-1.5c0-36.3,29.7-66,66-66h139.5c36.3,0,66,29.7,66,66v1.5
		C645.1,134.9,615.4,164.6,579.1,164.6z"/>
	<polygon class="st17" points="385.9,131.9 367.5,169 410.8,154.9 	"/>
	<text transform="matrix(1 0 0 1 412.333 89.6667)"><tspan x="0" y="0" class="st18 st19">Hi, I’m Jimmy!</tspan><tspan x="0" y="27.6" class="st18 st19">I’m ready to help.</tspan></text>
</g>
<g id="Слой_1" class="st13">
	
		<image style="display:inline;overflow:visible;" width="262" height="236" xlink:href="bot.jpg"  transform="matrix(2.3582 0 0 2.3582 15.9002 54.3384)">
	</image>
</g>
</svg>
